<svg xmlns="http://www.w3.org/2000/svg" viewBox="0 0 561.8 654.5">
  <path
    d="M96.1 393.8h254.5v221H96.1z"
  />
  <path
    fill="#FFB8B8"
    d="M260.5 160s2.8 10.8-3.4 18.4c-6.2 7.6 26.6 34.8 26.6 34.8l17.3-3s-3.8-33.1 1.3-41.4-41.8-8.8-41.8-8.8z"
  />
  <path
    opacity=".1"
    d="M260.5 160s2.8 10.8-3.4 18.4c-6.2 7.6 26.6 34.8 26.6 34.8l17.3-3s-3.8-33.1 1.3-41.4-41.8-8.8-41.8-8.8z"
  />
  <path
    fill="#FFB8B8"
    d="M375.4 474.6l-38.1 50.6 26 15.1 35.8-58.6z"
  />
  <path
    fill="#2F2E41"
    d="M348.7 526s-14-16.3-13.4-12.7c.6 3.6-10 34.5-.1 37.5s94.6 10.9 95.8 1.3-25.3-16.3-25.3-16.3-15.7-15.1-19.2-13.6-37.8 3.8-37.8 3.8z"
  />
  <path
    fill="#FFB8B8"
    d="M366.9 522.9l30.4 51.9 23-13.3-30.7-42.5z"
  />
  <path
    fill="#2F2E41"
    d="M415 399.4l-9 12.8s-43.1 59.9-38.5 64.7 23.6 23.1 33.3 19.6 44.1-64.7 44.1-64.7l-9-35.9-20.9 3.5z"
  />
  <path
    fill="#2F2E41"
    d="M229.3 387.3s9.7 18 34.1 24.1 50 18.6 50.9 18.4 3.5-1.5 4.1 2.1 7.3 10 7.3 10 27 91.8 37.3 91.9 31.5-7.3 32-10.2-31.6-96.7-31.9-98.5l-3.8-21.8s42.4 6.8 46.3 8 39.1 20.4 39.1 20.4 35.8-25.8 2.3-51.9-91.1-45.2-91.1-45.2l-20.7-5.8-18-1.1-2.7-10.2-42.7 2.5-44.5 18.9 2 48.4z"
  />
  <circle fill="#FFB8B8" cx="285.6" cy="148.1" r="33.2" />
  <path
    fill="#D0CDE1"
    d="M255.5 179.8l4-.7s7.2 27.8 29.6 32.4c0 0 11-13.2 10.5-15.4s8.7-14.1 13.6-7.5-1.2 123.8 2.9 125.9 12.9 4.3 5.8 12.1-35.3 18.2-41.5 14.6-19-34.2-24.5-44.5c-5.5-10.3-14.3-45.3-14.3-45.3s-11.3-38.3-4.3-47 18.2-24.6 18.2-24.6z"
  />
  <path
    fill="#2F2E41"
    d="M287.3 319.1c-.7 8.2-2 16.3-3.8 24.3-1.6 6.5-3.5 10.4-5.7 10.3-5.5-.4-8 7.7-9.3 17-1.4 9.9-1.4 21.2-2.1 25.2-1 5.3-7.4 9.3-20.3 8.1-7.7-.9-15.2-2.7-22.3-5.5-17.3-6.3-16.8-57.5-13.9-95.4 1.8-23.3 4.4-41.6 4.4-41.6s-5.3-15.7-7-26.5c-.3-2-.5-4-.5-5.9.3-9.4 17.4-34.8 27.8-50.7 10.4-15.8 24.6-4.2 24.6-4.2l-4.9 14.9s7.6 11.8 7.7 23 18.3 19.3 24.9 24.8c4 3.4 3.9 49 .4 82.2zm14.5-139.6s1.2 1.4 6.7.7c6.6-.8 15.6 1.4 17.7 7.7 3.9 11.5 14.7 58.4 14.7 58.4s4.5 53.5 6.6 65.4 1 22.3 3 28.5-19.8-11.6-27.8-9.3-13.2-27.7-12.2-38.2 1.9-21.9-.9-32.6c-2.8-10.8 2.2-39.2 2-45.8s-17.8-22.9-9.8-34.8z"
  />
  <path
    fill="#FFB8B8"
    d="M325.3 346s35.2 19.2 38.6 46.5-47.1-26.5-47.1-26.5l8.5-20zm20.1-19.4s10.8 54.3 27.6 51.5-9.4-54.6-9.4-54.6l-18.2 3.1z"
  />
  <path
    fill="#2F2E41"
    d="M402.9 563.5s-8.6 9.9-10.7 8.4-7 19-2.6 22.9 21.5 10.4 21.6 16.9 45.9 5.2 47.5-1.6-5.7-22.4-10.9-25.3-24.3-29.2-24.3-29.2-15 2.3-20.6 7.9z"
  />
  <path
    opacity=".1"
    d="M319.7 379.2c-8.2-5.8-30.9-7.2-51.2-8.5-8.9-.6-17.3-1.1-23.7-2-6.2-.9-11.8-6.5-16.7-15-7.5-12.8-13.6-32-18.3-50.5 1.8-23.3 4.4-41.6 4.4-41.6s-5.3-15.7-7-26.5c1.2-1.7 2.7-3 4.5-4 21.5-9.2 41.9 81.4 44.5 95.6 0 .2.1.5.1.6 1.3 7.3 14.9 13.6 27.1 16.1 7.5 1.5 14.5 1.6 17.7-.4 8.5-5.2 34.5 15.6 36.5 16.2 2.2.6-6.2 28.3-17.9 20z"
  />
  <path
    fill="#2F2E41"
    d="M211.8 225.5s-15.6 7.4-8.7 41.8 20.7 92.9 41.8 95.9 63.1 2.3 74.9 10.5 20.1-19.4 18.1-20-28-21.4-36.5-16.2-42.8-3.9-44.8-15.7c-2.2-11.9-23-105.7-44.8-96.3zM324.2 209l17.1 39.8s1.7-.9 3.7 5.4c2 6.2 2.9 11.7 6.5 15.8s19.1 62.3 19.6 65-21.6 12.1-26.5 4.6S324.2 209 324.2 209z"
  />
  <path
    fill="#4D3324"
    d="M266.7 147.7c1.3-.3 1.5-2 1.5-3.3.2-7.1 4.5-14.3 11.2-16.3 2.6-.7 5.3-.9 8-.4 3.8.5 7.4 1.7 10.8 3.6 1.8 1 3.5 2.2 5.5 2.5 1.3.2 7 1.9 8.3 2.1 2.9.5 5.6 3.1 8.3 2.1 2.6-.9 3.2-4.3 3.3-7.2.1-6.4-4.7-15.2-9-20-3.2-3.6-8.1-5.3-12.9-6.1-5.6-.9-11.2-1.2-16.9-1-7.6.1-15.5.7-22.4 4-6.9 3.3-12.7 9.9-13 17.5-.1 1.6.1 3.2 0 4.8-.3 3.9-2.4 7.4-3.3 11.1-1.4 5.6-.4 11.5 2.8 16.3 2.6 3.8 6.6 7.2 6.4 11.7l5.5-5.7c1.7-1.3 2.3-3.6 1.4-5.6l-2-7.6c-.5-1.4-.6-2.9-.2-4.3 2.3-5.4 4.6 2.3 6.7 1.8z"
  />
</svg>