<svg viewBox="0 0 893 690" xmlns="http://www.w3.org/2000/svg">
  <g transform="translate(0 1)" fill="none">
    <circle fill="#FFB8B8" cx="435.922" cy="137.405" r="73.536" />
    <path
      d="M381.036 174.173s13.854 104.443-7.46 116.166c-21.315 11.723 126.823 12.789 126.823 12.789S467.36 212.54 482.28 184.83l-101.245-10.658z"
      fill="#FFB8B8"
    />
    <path
      d="M608.57 303.656l-12.32 56.1-26.05 118.69-.78 6.5-8.99 75.25-5.98 49.99-4.01 33.58c-24.38 12.53-42.05 21.18-42.05 21.18s-1.52-7.62-3.97-17.37c-17.11 5.13-48.77 13.64-75.6 15.34 9.77 10.89 14.26 21.12 8.17 28.67-18.38 22.76-94.26-24.92-120.8-42.7a71.84 71.84 0 00-.7 12.86l-20.31-15.62 2.01-35.94 3.39-60.81 4.26-76.26a80.064 80.064 0 01-3.37-10.03c-6.22-22.12-13.77-66.29-19.56-103.33-4.66-29.81-8.16-55-8.9-60.36l-.15-1.06 112.43-49.68c7.99 18.53 45.3 24.1 45.3 24.1 30.91-2.13 55.14-18.43 55.14-18.43l122.84 49.33z"
      fill="#D0CDE1"
    />
    <path
      d="M516.92 643.636s-4.76 1.63-12.5 3.94c-17.11 5.13-48.77 13.64-75.6 15.34-23.1 1.48-42.62-2.08-46.19-17.15-1.53-6.48.64-11.81 5.37-16.19 14.12-13.09 51-17.78 80.25-19.39 8.26-.45 15.9-.66 22.26-.74 10.8-.14 17.88.08 17.88.08l.17.66 8.36 33.45z"
      fill="#A0616A"
    />
    <path
      d="M374.746 67.847l-13.75-5.505s28.75-31.65 68.748-28.898l-11.25-12.385s27.5-11.01 52.498 17.89c13.142 15.19 28.347 33.047 37.825 53.162h14.725l-6.146 13.532 21.51 13.532-22.077-2.43a75.617 75.617 0 01.599 22.444 29.04 29.04 0 01-10.635 18.998s-17.052-35.296-17.052-40.8v13.761s-13.75-12.385-13.75-20.642l-7.499 9.633-3.75-15.137-46.248 15.137 7.5-12.385-28.749 4.129 11.25-15.138s-32.498 17.89-33.749 33.027c-1.25 15.137-10.762 29.48-10.762 29.48s-25.486-70.764 10.762-91.405z"
      fill="#4D3324"
    />
    <path
      d="M688.5 561.566c-7.49 8.12-26.05 20.35-48.55 33.59-8.37 4.92-17.28 9.99-26.37 15.03-21.69 12.03-44.4 23.95-63.14 33.58-24.38 12.53-42.05 21.18-42.05 21.18s-1.52-7.62-3.97-17.37c-3.28-13.05-8.22-29.92-13.37-37.39-.18-.26-.36-.5-.54-.74-1.5-1.97-3.01-3.12-4.5-3.12l74.42-46.13 32.16-19.94-23.17-55.31-29.06-69.38 17.54-55.81 17.63-56.1h33.04s10.94 23.88 24.93 57.18c2.09 4.98 4.25 10.17 6.45 15.53 28.78 70 64.66 167.75 48.55 185.2z"
      fill="#D0CDE1"
    />
    <path
      d="M436.99 691.586c-18.38 22.76-94.26-24.92-120.8-42.7-5.78-3.87-9.22-6.32-9.22-6.32l24.28-32.38 7.69-10.25s6.88 3.65 17.05 9.59c.37.22.74.44 1.12.66 8.77 5.15 19.78 11.88 30.89 19.39 15.33 10.37 30.83 22.2 40.82 33.34 9.77 10.89 14.26 21.12 8.17 28.67z"
      fill="#A0616A"
    />
    <path
      d="M355.99 609.526c-2.714-.01-5.423.21-8.1.66-22.99 3.95-29.77 24.76-31.7 38.7a71.84 71.84 0 00-.7 12.86l-20.31-15.62-7.4-5.69c-17.81-6.21-33.68-17.24-47.44-30.25a238.482 238.482 0 01-31.95-37.89 334.15 334.15 0 01-24.72-42.4 31.184 31.184 0 01-.43-26.45l25.15-56.05 36.76-81.92c.27-1.95.567-3.857.89-5.72 7.29-41.8 26.82-60.36 26.82-60.36h14.92l9.98 60.36 12.4 74.99-8.69 28.34-20.08 65.45 19.19 20.84 55.41 60.15z"
      fill="#D0CDE1"
    />
    <path d="M372.877 434.806l12.754 14.88a366.668 366.668 0 0014.785-3.157l-3.664-11.723 8.958 10.45c53.997-13.28 120.927-39.101 120.927-39.101s-72.257 5.298-126.209-6.489c-23.87-5.215-48.43 6.618-58.226 29.003-5.693 13.01-4.8 24.282 15.394 24.282a133.375 133.375 0 0020.353-1.914l-5.072-16.231z" />
    <path
      d="M663.65 679.386v6.07c0 1.666-.305 3.318-.91 4.87-.268.692-.593 1.36-.97 2a13.437 13.437 0 01-11.55 6.56H203.67a13.437 13.437 0 01-11.55-6.56 13.682 13.682 0 01-.97-2 13.412 13.412 0 01-.91-4.87v-6.07a13.43 13.43 0 0113.43-13.43h25.74v-2.83a.56.56 0 01.56-.56h13.43a.56.56 0 01.56.56v2.83h8.39v-2.83a.56.56 0 01.56-.56h13.43a.56.56 0 01.56.56v2.83h8.4v-2.83a.56.56 0 01.56-.56h13.43a.56.56 0 01.56.56v2.83h8.39v-2.83a.56.56 0 01.56-.56h13.43a.56.56 0 01.56.56v2.83h8.39v-2.83a.56.56 0 01.56-.56h13.43a.56.56 0 01.56.56v2.83h8.4v-2.83a.56.56 0 01.56-.56h13.43a.56.56 0 01.56.56v2.83h8.39v-2.83a.56.56 0 01.56-.56h105.2a.56.56 0 01.56.56v2.83h8.4v-2.83a.56.56 0 01.56-.56h13.43a.566.566 0 01.56.56v2.83h8.39v-2.83a.56.56 0 01.56-.56h13.43a.56.56 0 01.56.56v2.83h8.39v-2.83a.56.56 0 01.56-.56h13.43a.56.56 0 01.56.56v2.83h8.4v-2.83a.56.56 0 01.56-.56h13.43a.557.557 0 01.55.56v2.83h8.4v-2.83a.56.56 0 01.56-.56h13.43a.56.56 0 01.56.56v2.83h8.39v-2.83a.56.56 0 01.56-.56h13.43a.56.56 0 01.56.56v2.83h39.17a13.426 13.426 0 0113.43 13.43z"
      fill="#3F3D56"
    />
    <path
      fill="#3F3D56"
      d="M60.5 690.326h733v2h-733zM627.694 423.757H461.252v-3.43H385.78v3.43H218.65c-6.217 0-11.258 5.04-11.258 11.258v227.912c0 6.218 5.041 11.258 11.259 11.258h409.043c6.218 0 11.26-5.04 11.26-11.258V435.015a11.259 11.259 0 00-11.26-11.258z"
    />
    <circle stroke="#D0CDE1" cx="423.5" cy="503.326" r="25" />
    <circle fill="#D0CDE1" cx="415.5" cy="512.326" r="25" />
    <path fill="#D0CDE1" d="M80.446 680.223h28v28h-28z" />
    <path
      d="M91.45 658.223v34h34v-34h-34zm32.52 32.52H92.92v-31.04h31.05v31.04z"
      fill="#3F3D56"
    />
    <path fill="#D0CDE1" d="M728.446 680.223h28v28h-28z" />
    <path
      d="M739.45 658.223v34h34v-34h-34zm32.52 32.52h-31.05v-31.04h31.05v31.04z"
      fill="#3F3D56"
    />
    <path
      d="M150.594 618.754c.933 31.95-17.735 43.659-41.164 44.343a72.17 72.17 0 01-1.625.03 65.435 65.435 0 01-3.228-.055c-21.188-.88-37.96-12.127-38.827-41.84-.898-30.75 37.269-70.703 40.132-73.658l.005-.003.165-.17s43.609 39.406 44.542 71.353z"
      fill="#D0CDE1"
    />
    <path
      d="M107.744 658.255l14.882-22.131-14.852 24.512.031 2.49a65.435 65.435 0 01-3.228-.054l.739-32.012-.02-.247.027-.047.07-3.025-16.298-23.663 16.279 21.399.058.639.557-24.186-14.077-24.533 14.117 20.284-.147-50.107v-.167l.005.164.935 39.491 12.83-16.041-12.788 19.443.28 21.634 11.805-21.114-11.762 24.295.156 12.03 17.169-29.412-17.117 33.608.349 26.75z"
      fill="#3F3D56"
    />
    <path
      d="M798.594 618.754c.933 31.95-17.735 43.659-41.164 44.343a72.17 72.17 0 01-1.625.03 65.435 65.435 0 01-3.228-.055c-21.188-.88-37.96-12.127-38.827-41.84-.898-30.75 37.269-70.703 40.132-73.658l.005-.003.165-.17s43.609 39.406 44.542 71.353z"
      fill="#D0CDE1"
    />
    <path
      d="M755.744 658.255l14.882-22.131-14.852 24.512.031 2.49a65.435 65.435 0 01-3.228-.054l.739-32.012-.02-.247.027-.047.07-3.025-16.298-23.663 16.279 21.399.058.639.557-24.186-14.077-24.533 14.117 20.284-.147-50.107v-.167l.005.164.935 39.491 12.83-16.041-12.788 19.443.28 21.634 11.805-21.114-11.762 24.295.156 12.03 17.169-29.412-17.117 33.608.349 26.75z"
      fill="#3F3D56"
    />
  </g>
</svg>