<?xml version="1.0" encoding="utf-8"?>
<!-- Generator: Adobe Illustrator 19.0.0, SVG Export Plug-In . SVG Version: 6.00 Build 0)  -->
<svg version="1.1" id="layer" xmlns="http://www.w3.org/2000/svg" xmlns:xlink="http://www.w3.org/1999/xlink" x="0px" y="0px"
	 viewBox="-153 -46 652 652" style="enable-background:new -153 -46 652 652;" xml:space="preserve">
<style type="text/css">
	.st0{fill:#E40428;}
	.st1{fill:#FFFFFF;}
</style>
<g>
	<path class="st0" d="M468.7,275.4c0,62-134.3,112.3-300,112.3c-165.7,0-300-50.3-300-112.3c0-62,134.3-112.3,300-112.3
		C334.4,163.1,468.7,213.4,468.7,275.4"/>
</g>
<polygon class="st1" points="-79.8,238.3 -62.8,238.3 -70.8,294.8 -49.9,294.8 -52.4,312.5 -90.2,312.5 "/>
<g>
	<path class="st1" d="M-6,282l-2.8-17.3c-0.4-2.8-0.8-5.6-0.8-8.4c-1.4,4.7-2.4,7.6-2.9,8.7l-6.8,17H-6z M-18.1,238.3H3l12.9,74.2
		H-1.2l-2.5-14h-22.1l-6.1,14h-18.4L-18.1,238.3z"/>
</g>
<polygon class="st1" points="29,238.3 45.9,238.3 37.9,294.8 58.8,294.8 56.3,312.5 18.5,312.5 "/>
<polygon class="st1" points="69.6,238.3 86.6,238.3 78.6,294.8 99.4,294.8 96.9,312.5 59.1,312.5 "/>
<polygon class="st1" points="139.7,296 137.4,312.5 101,312.5 111.5,238.3 147.9,238.3 145.5,255.4 126,255.4 124.3,267.6 
	142.4,267.6 140.2,283.7 122,283.7 120.2,296 "/>
<g>
	<path class="st1" d="M163.2,238.3h18.7l4.1,28.8c0.5,3.6,0.9,7.6,1.2,11.6c0.8-3.7,2.2-7.5,3.6-11.2l11.5-29.2h18.6l1,74.2h-15.6
		l0.1-35.4c0-3.4,0.1-7.4,0.4-11.7c-1.2,4.6-2.8,8.1-4,11l-14.6,36.1h-10.2l-5.7-36c-0.5-3.2-1-7-1.4-11.1
		c-0.6,4.4-1.4,8.3-2.2,11.7l-9,35.4h-16.4L163.2,238.3z"/>
	<path class="st1" d="M267.1,282l-2.8-17.3c-0.4-2.8-0.8-5.6-0.8-8.4c-1.4,4.7-2.4,7.6-2.9,8.7l-6.8,17H267.1z M254.9,238.3h21.1
		l12.9,74.2h-17.1l-2.5-14h-22.1l-6.1,14h-18.4L254.9,238.3z"/>
	<path class="st1" d="M304.5,238.3h16.8c0,0,21.7,43.3,22.8,48.8c0-0.6,0-1.2,0-1.9c0-3.3,0.4-6.9,0.9-10.5l5.1-36.4h16.9
		l-10.5,74.2h-18.5l-17.6-37.8c-1.1-3-2.6-6.9-3.6-12.1c0,0.7,0,1.3,0,2.1c0,3.6-0.4,7.1-0.8,10.3l-5,37.6H294L304.5,238.3z"/>
	<path class="st1" d="M389.8,296.2c13.6,0,20.7-8.2,20.8-23.6c0.1-12.9-5-18-16.1-18h-3.2l-5.7,41.3
		C387.1,296.1,388.5,296.2,389.8,296.2 M376.8,238.3h10.9c11.7,0,20.1,0.2,25.8,3.5c9.2,5.5,14.3,16.4,14.2,31.2
		c-0.1,14.2-4.5,24.8-13.5,32.3c-8.5,7-19,7.2-33.1,7.2h-2.4h-12.2L376.8,238.3z"/>
</g>
</svg>
