<svg width="178" height="27" viewBox="0 0 178 27" fill="none" xmlns="http://www.w3.org/2000/svg">
<path d="M28.0389 26.9198L19.2177 18.1239L27.3038 10.1086L18.115 0.948303L14.072 4.95593L9.9764 0.948303L0.735103 10.1086L8.87375 18.1239L0 26.9198H28.0389ZM14.0195 13.0232L11.0791 10.1086L14.0195 7.14191L16.9599 10.1086L14.0195 13.0232ZM18.115 3.13428L25.151 10.1086L18.115 17.0829L15.1746 14.1162L19.2177 10.1086L15.1746 6.10097L18.115 3.13428ZM2.94041 10.1086L9.9764 3.13428L12.9168 6.10097L8.87375 10.1086L12.9168 14.1162L9.9764 17.0829L2.94041 10.1086ZM9.9764 19.2169L14.0195 15.2092L24.3109 25.4105H3.72802L9.9764 19.2169Z" fill="#FA050F"/>
<path d="M46.6265 14.4806C50.4071 13.908 52.5073 11.8782 52.5073 9.90041C52.5073 7.71443 50.6171 5.73663 46.9416 5.73663H35.2324L38.3304 8.07875V22.3397L35.2324 24.6818H46.7315C51.2472 24.6818 53.5575 22.0794 53.5575 19.5291C53.505 17.187 51.0897 14.949 46.6265 14.4806ZM43.056 6.62143H44.2112C46.4165 6.62143 47.4666 8.44308 47.4666 10.4729C47.4666 12.1905 46.364 14.3244 44.1587 14.3244H43.056V6.62143ZM44.5787 23.797H43.056V15.1572H43.8961C46.784 15.1572 48.4643 17.135 48.4643 19.8414C48.4118 21.9233 47.2041 23.797 44.5787 23.797Z" fill="#FA050F"/>
<path d="M62.3258 14.7408C62.3258 14.7408 64.5836 15.1572 67.629 14.4285C70.6745 13.6998 72.0396 11.9302 72.0396 9.95245C72.0396 7.61033 69.9919 5.73663 65.9488 5.73663H54.5547L57.6526 8.07875V22.3397L54.5547 24.6818H65.4237L62.3783 22.3397V14.7408H62.3258ZM62.3258 6.62143C65.1612 6.62143 66.8414 7.87057 66.8414 10.2647C66.8414 12.6069 65.3187 14.3765 62.3258 14.3765V6.62143Z" fill="#FA050F"/>
<path d="M96.5613 13.2835C96.5613 10.2647 98.1891 6.93371 102.232 6.10096L107.535 11.5139L111.211 7.76647C108.901 6.10096 105.803 5.32025 103.23 5.32025C97.874 5.32025 92.6758 8.80741 92.6758 15.3133C92.6758 21.6631 97.6115 25.1502 102.6 25.1502C106.59 25.1502 110.161 22.8081 111.683 18.0198C110.213 19.2689 107.693 20.8823 104.437 20.8823C99.3442 20.8303 96.5613 17.239 96.5613 13.2835Z" fill="#FA050F"/>
<path d="M135.574 5.7887H124.705L127.802 8.07877V14.6367H119.979V8.07877L123.077 5.7887H112.155L115.253 8.07877V22.3917L112.155 24.6818H123.077L119.979 22.3917V15.5736H127.802V22.3917L124.705 24.6818H135.574L132.528 22.3917V8.07877L135.574 5.7887Z" fill="#FA050F"/>
<path d="M146.495 5.32025C140.614 5.32025 136.571 9.32788 136.571 15.2092C136.571 21.4028 141.034 25.1502 146.705 25.1502C152.586 25.1502 156.629 21.1426 156.629 15.2092C156.629 9.0156 152.113 5.32025 146.495 5.32025ZM147.073 24.2654C143.66 24.2654 141.77 19.7894 141.77 14.2724C141.77 9.53607 143.082 6.15301 146.075 6.15301C149.488 6.15301 151.378 10.577 151.378 16.1461C151.378 20.8824 150.066 24.2654 147.073 24.2654Z" fill="#FA050F"/>
<path d="M170.228 6.62145H172.329L178.105 13.0753L177.475 5.7887H158.257L157.574 13.0753L163.403 6.62145H165.503V22.3917L162.09 24.6818H173.589L170.228 22.3917V6.62145Z" fill="#FA050F"/>
<path d="M78.7083 5.7887L79.916 8.5472L73.7727 22.3397C72.88 21.611 71.7774 20.518 70.7272 18.9566L69.4145 16.9788L63.4287 16.4584L64.3213 17.8636C64.3213 17.8636 64.9514 18.8005 66.2641 21.0906C68.4169 24.7859 73.0901 26.1391 76.503 23.9011C76.503 23.9011 75.7154 23.6929 74.6128 22.9122L76.6081 18.3321H84.2741L86.0594 22.2876L82.9614 24.6818H92.0977L83.9066 5.7887H78.7083ZM77.0281 17.4473L80.4411 9.64019L83.9066 17.4473H77.0281Z" fill="#FA050F"/>
</svg>
